<?xml version="1.0" encoding="UTF-8"?>
<svg xmlns="http://www.w3.org/2000/svg"
     width="32" height="32"
     viewBox="0 0 32 32">
  <g transform="translate(2.764706 1.000000) scale(0.110294118)">
    <path d="M 108.938 8.188 L 102.062 13.062 L 99.688 20.625 L 101.062 28.125 L 106.938 36.688 L 77.875 37.062 L 72.250 40.125 L 68.875 44.562 L 67.562 50.000 L 67.562 82.500 L 55.625 85.125 L 51.062 89.500 L 49.125 93.938 L 48.875 139.562 L 35.750 141.062 L 30.875 144.625 L 27.938 149.562 L 27.125 203.062 L 16.625 203.938 L 12.562 206.000 L 8.188 212.000 L 8.000 219.438 L 12.312 225.812 L 19.000 228.438 L 95.750 228.750 L 91.500 236.062 L 82.312 244.625 L 72.500 250.812 L 58.375 257.125 L 56.938 261.125 L 59.500 263.938 L 180.250 264.000 L 183.000 261.125 L 181.625 257.188 L 169.000 251.625 L 156.312 243.625 L 147.312 234.688 L 144.188 228.750 L 223.188 228.062 L 227.625 225.812 L 230.750 222.188 L 232.125 218.188 L 231.938 212.562 L 229.938 208.562 L 225.812 205.000 L 212.812 203.062 L 212.000 149.625 L 209.062 144.625 L 204.188 141.062 L 191.062 139.562 L 190.812 93.938 L 188.875 89.500 L 184.188 85.062 L 172.375 82.500 L 172.375 50.062 L 170.000 42.688 L 166.375 39.062 L 161.375 36.938 L 133.000 36.688 L 139.938 25.062 L 139.938 17.562 L 137.000 12.000 L 130.250 8.000 L 124.750 8.062 L 120.188 10.062 L 115.188 8.062 Z M 79.562 255.938 L 79.938 255.250 L 82.438 253.938 L 89.312 249.000 L 94.938 243.812 L 97.875 240.562 L 100.875 236.375 L 102.938 232.500 L 104.250 228.938 L 104.688 228.562 L 105.562 228.438 L 135.312 228.562 L 135.812 229.188 L 137.000 232.500 L 139.000 236.250 L 141.000 239.188 L 144.000 242.750 L 150.625 249.000 L 157.500 253.938 L 159.938 255.188 L 160.375 255.750 L 160.062 256.312 L 79.938 256.312 Z M 15.312 215.500 L 17.250 212.188 L 19.812 211.188 L 85.750 211.188 L 89.000 209.125 L 88.938 205.500 L 85.625 203.562 L 35.438 203.562 L 35.375 169.688 L 44.625 175.812 L 52.500 176.875 L 60.188 174.812 L 69.500 168.125 L 75.438 167.250 L 79.438 168.312 L 90.875 175.875 L 98.562 176.875 L 106.188 174.875 L 115.438 168.188 L 121.500 167.250 L 127.188 169.250 L 136.812 175.812 L 144.562 176.875 L 152.250 174.875 L 161.500 168.188 L 166.438 167.188 L 171.188 168.125 L 180.562 174.812 L 187.438 176.812 L 196.062 175.812 L 204.688 170.250 L 204.750 203.312 L 100.438 203.562 L 97.062 205.562 L 97.125 209.312 L 100.250 211.188 L 220.125 211.188 L 223.688 213.188 L 224.625 216.438 L 223.688 218.812 L 220.250 220.812 L 19.688 220.812 L 16.312 218.875 Z M 35.062 153.000 L 37.438 149.062 L 40.625 147.875 L 147.562 147.812 L 149.938 146.438 L 150.938 143.500 L 149.938 141.375 L 147.500 140.000 L 57.438 140.000 L 56.562 139.375 L 56.562 118.562 L 63.188 114.875 L 67.500 111.125 L 72.875 109.188 L 79.188 110.125 L 88.500 116.812 L 96.312 118.812 L 103.500 117.875 L 107.750 115.875 L 115.438 110.125 L 122.188 109.250 L 127.312 111.250 L 134.688 116.875 L 144.375 118.812 L 152.062 116.875 L 161.375 110.188 L 166.875 109.125 L 173.312 111.188 L 183.250 118.312 L 183.375 139.375 L 182.500 140.000 L 161.188 140.062 L 158.312 142.750 L 159.000 146.312 L 161.750 147.875 L 200.938 148.125 L 203.688 150.250 L 204.688 152.188 L 204.938 160.438 L 195.250 167.750 L 192.125 168.875 L 185.688 168.562 L 174.250 161.000 L 166.000 159.562 L 158.625 161.000 L 149.000 167.812 L 142.312 169.000 L 137.500 167.688 L 128.312 161.062 L 125.125 160.000 L 118.750 159.625 L 110.438 162.062 L 103.062 167.750 L 96.250 169.000 L 91.438 167.688 L 82.250 161.062 L 73.812 159.562 L 66.500 161.000 L 55.125 168.500 L 50.125 169.000 L 45.562 167.812 L 35.125 160.625 Z M 56.625 96.875 L 57.625 93.750 L 61.125 91.125 L 90.375 91.000 L 92.938 89.375 L 93.688 87.375 L 93.188 85.438 L 90.438 83.250 L 75.375 82.875 L 75.125 60.688 L 75.625 60.000 L 80.375 61.312 L 86.000 65.875 L 89.688 67.938 L 96.250 69.250 L 101.312 69.000 L 105.125 67.875 L 108.750 65.812 L 114.438 61.188 L 119.438 59.875 L 123.312 60.062 L 126.125 61.125 L 135.750 67.938 L 141.375 69.188 L 147.375 69.000 L 153.312 66.812 L 160.500 61.188 L 164.375 60.062 L 164.750 82.500 L 164.250 83.125 L 104.500 83.188 L 102.375 84.062 L 101.188 85.562 L 101.000 88.250 L 102.250 90.000 L 104.312 91.000 L 179.062 91.188 L 181.000 92.312 L 182.875 94.625 L 183.375 108.312 L 182.188 108.750 L 178.062 105.125 L 174.375 103.000 L 171.438 102.000 L 165.562 101.500 L 158.500 103.000 L 149.000 109.750 L 146.062 110.812 L 141.688 110.938 L 137.625 109.688 L 128.312 103.000 L 125.375 102.000 L 119.500 101.500 L 112.438 103.000 L 102.750 109.812 L 100.000 110.812 L 95.688 110.938 L 91.562 109.688 L 82.250 103.000 L 79.312 102.000 L 73.500 101.500 L 66.062 103.125 L 57.062 109.375 Z M 75.125 51.000 L 75.500 48.875 L 76.125 47.375 L 78.500 45.125 L 80.938 44.438 L 159.000 44.438 L 161.438 45.125 L 163.562 47.062 L 164.625 49.500 L 164.812 51.250 L 164.250 52.062 L 159.750 53.062 L 157.500 54.062 L 154.312 56.062 L 150.000 59.750 L 148.125 60.750 L 145.250 61.500 L 141.938 61.562 L 138.625 60.750 L 135.562 58.875 L 131.250 55.188 L 127.188 53.125 L 123.062 52.125 L 118.938 52.000 L 113.688 53.062 L 111.438 54.062 L 108.188 56.125 L 104.125 59.625 L 102.062 60.750 L 99.188 61.500 L 96.438 61.625 L 92.562 60.750 L 90.562 59.688 L 86.438 56.062 L 83.375 54.125 L 80.625 53.000 L 75.688 52.000 L 75.312 51.688 Z M 107.500 19.750 L 107.688 19.438 L 108.188 17.688 L 109.500 16.312 L 110.625 15.875 L 112.312 15.625 L 114.188 15.938 L 114.938 16.250 L 115.688 16.938 L 116.938 18.938 L 117.812 19.812 L 118.312 20.062 L 119.562 20.438 L 120.375 20.438 L 121.312 20.188 L 122.125 19.812 L 123.000 18.938 L 124.250 16.938 L 125.000 16.250 L 125.750 15.938 L 126.375 15.875 L 126.625 15.750 L 127.938 15.625 L 129.312 15.875 L 130.375 16.250 L 131.688 17.625 L 132.500 20.062 L 132.625 21.062 L 132.562 22.125 L 131.625 25.312 L 131.125 25.938 L 130.500 27.188 L 130.000 27.688 L 129.750 28.250 L 129.062 28.938 L 128.688 29.500 L 126.250 31.812 L 125.875 32.000 L 125.250 32.625 L 124.688 32.938 L 123.938 33.625 L 123.125 34.125 L 122.438 34.750 L 121.750 35.000 L 120.750 35.812 L 119.875 36.000 L 119.000 35.688 L 118.188 35.000 L 117.625 34.812 L 117.000 34.250 L 116.000 33.625 L 115.250 32.938 L 114.562 32.500 L 114.312 32.188 L 113.688 31.812 L 111.250 29.500 L 110.875 28.938 L 110.188 28.250 L 109.938 27.688 L 109.312 27.000 L 108.812 25.938 L 108.312 25.312 L 108.125 24.875 L 107.875 23.688 L 107.562 22.938 L 107.375 22.125 L 107.375 20.500 Z"
          fill="#000000"
          fill-rule="evenodd"/>
  </g>
</svg>
