<?xml version="1.0" encoding="UTF-8"?>
<svg xmlns="http://www.w3.org/2000/svg"
     width="32" height="32"
     viewBox="0 0 32 32">
  <g transform="translate(1.000000 3.205882) scale(0.110294118)">
    <path d="M 116.375 110.688 L 116.438 111.500 L 117.188 113.312 L 117.750 113.875 L 118.438 114.312 L 119.625 114.875 L 120.375 114.938 L 154.312 114.938 L 155.312 114.750 L 156.688 113.938 L 157.812 112.562 L 158.000 112.125 L 158.062 111.500 L 158.000 109.812 L 157.812 109.375 L 156.625 107.938 L 155.312 107.188 L 154.750 107.062 L 119.625 107.062 L 118.125 107.812 L 117.125 108.688 Z M 116.375 91.375 L 116.438 92.062 L 116.812 93.188 L 117.062 93.688 L 117.562 94.188 L 118.625 95.000 L 120.500 95.312 L 154.188 95.312 L 155.375 95.125 L 156.312 94.750 L 157.688 93.250 L 158.062 92.188 L 158.062 90.750 L 157.750 89.750 L 156.250 88.125 L 155.625 87.875 L 154.562 87.688 L 119.875 87.688 L 118.438 88.000 L 117.062 89.250 L 116.500 90.625 Z M 123.438 30.062 L 121.312 31.062 L 118.875 32.875 L 117.000 34.875 L 115.125 37.938 L 114.812 39.250 L 114.125 40.938 L 113.875 43.625 L 114.000 47.312 L 115.062 51.312 L 117.062 55.188 L 119.125 57.938 L 121.062 60.062 L 125.375 63.875 L 128.375 65.938 L 129.312 66.375 L 129.750 66.812 L 130.688 67.188 L 131.750 67.938 L 132.812 68.312 L 133.688 68.938 L 134.312 69.062 L 136.125 69.938 L 137.188 70.000 L 138.188 69.812 L 139.250 69.188 L 140.312 68.875 L 141.562 68.062 L 142.250 67.875 L 148.312 63.938 L 152.875 59.875 L 154.750 57.812 L 156.750 55.062 L 157.312 53.875 L 157.875 53.188 L 158.250 51.938 L 158.812 51.062 L 159.875 47.125 L 159.938 42.000 L 158.938 38.375 L 157.938 36.375 L 156.812 34.750 L 155.188 33.000 L 152.688 31.125 L 150.312 30.000 L 147.062 29.438 L 145.250 29.438 L 142.000 30.000 L 139.625 31.062 L 137.188 32.875 L 136.375 32.750 L 134.250 31.062 L 131.875 30.000 L 129.188 29.500 L 126.812 29.438 Z M 151.875 41.625 L 152.188 43.688 L 152.188 44.875 L 151.875 47.375 L 151.688 48.000 L 151.125 48.938 L 150.750 50.125 L 150.125 50.875 L 149.688 51.750 L 147.625 54.250 L 146.125 55.688 L 143.812 57.625 L 143.000 58.125 L 142.312 58.750 L 141.562 59.062 L 140.750 59.750 L 139.812 60.188 L 139.250 60.688 L 138.625 60.875 L 137.125 61.750 L 136.438 61.688 L 135.562 61.062 L 134.688 60.750 L 134.000 60.188 L 132.812 59.625 L 132.188 59.062 L 131.438 58.750 L 130.938 58.250 L 129.875 57.562 L 128.062 56.000 L 127.625 55.750 L 126.250 54.438 L 124.375 52.188 L 123.812 51.188 L 123.188 50.438 L 122.938 49.562 L 122.125 48.062 L 121.688 45.312 L 121.688 43.625 L 122.000 41.688 L 122.250 40.938 L 122.812 40.250 L 123.188 39.438 L 124.562 38.125 L 125.312 37.875 L 125.688 37.562 L 126.625 37.188 L 128.500 37.125 L 129.188 37.250 L 130.938 38.188 L 132.562 39.812 L 133.250 41.250 L 134.312 42.750 L 135.750 43.500 L 136.625 43.750 L 137.500 43.688 L 139.375 42.875 L 139.938 42.312 L 140.250 41.625 L 140.750 41.000 L 141.375 39.688 L 142.625 38.375 L 144.688 37.250 L 146.125 37.062 L 147.312 37.188 L 149.312 38.125 L 150.688 39.438 L 151.125 40.375 L 151.562 40.875 Z M 11.125 19.812 L 9.188 20.625 L 7.875 22.938 L 7.938 83.250 L 9.062 87.688 L 12.125 92.812 L 16.625 96.875 L 22.875 99.625 L 22.938 201.188 L 25.000 203.812 L 27.438 204.125 L 29.875 202.688 L 30.688 200.562 L 30.750 99.688 L 36.875 96.875 L 40.938 93.438 L 43.875 89.125 L 45.625 83.062 L 45.812 23.500 L 44.938 21.188 L 43.250 19.938 L 40.250 20.000 L 38.062 22.375 L 38.000 67.375 L 37.188 68.250 L 30.812 68.125 L 30.188 67.438 L 30.125 22.500 L 29.438 21.000 L 27.438 19.812 L 24.688 20.000 L 23.062 21.438 L 22.625 67.438 L 21.375 68.188 L 16.562 68.188 L 15.562 67.375 L 15.625 23.438 L 14.500 20.875 Z M 15.562 76.562 L 15.875 76.188 L 16.562 75.938 L 17.125 75.938 L 17.188 76.000 L 36.688 76.000 L 36.750 75.938 L 37.375 75.938 L 37.625 76.062 L 38.000 76.562 L 37.938 82.125 L 37.875 82.188 L 37.812 83.250 L 37.500 84.250 L 37.125 84.812 L 37.062 85.188 L 36.625 86.312 L 36.188 86.750 L 35.875 87.438 L 33.625 89.750 L 32.812 90.188 L 32.250 90.688 L 30.938 91.125 L 30.062 91.625 L 29.062 91.875 L 26.250 92.000 L 26.188 91.938 L 24.500 91.875 L 23.688 91.688 L 22.312 91.000 L 21.875 90.938 L 21.438 90.750 L 19.688 89.500 L 19.250 89.000 L 18.312 88.188 L 17.938 87.562 L 17.188 86.688 L 16.938 86.188 L 16.812 85.688 L 16.438 85.250 L 16.062 84.312 L 16.000 83.562 L 15.875 83.188 L 15.875 82.750 L 15.750 82.375 L 15.625 81.375 Z M 259.875 19.688 L 258.188 20.125 L 253.438 23.062 L 244.938 30.500 L 239.000 38.438 L 235.000 46.625 L 233.062 53.000 L 231.938 60.500 L 231.875 99.375 L 232.250 102.188 L 234.000 106.438 L 235.938 109.000 L 239.250 111.875 L 243.688 113.938 L 255.250 114.312 L 256.250 115.062 L 256.312 200.438 L 256.938 202.438 L 258.375 203.812 L 261.000 204.125 L 263.125 202.812 L 264.062 200.688 L 264.062 23.250 L 263.750 21.875 L 262.188 20.125 Z M 255.938 31.125 L 256.375 31.625 L 256.312 106.188 L 256.000 106.562 L 255.250 106.812 L 246.812 106.688 L 243.750 105.625 L 242.438 104.688 L 241.250 103.438 L 240.062 101.312 L 239.625 98.938 L 239.625 63.312 L 240.062 57.500 L 241.125 52.688 L 241.812 51.125 L 242.125 49.625 L 244.188 44.938 L 246.125 41.562 L 248.125 38.688 L 250.875 35.500 L 255.062 31.438 Z M 99.688 8.312 L 96.062 11.625 L 96.000 48.500 L 78.688 59.938 L 67.062 71.375 L 57.062 85.562 L 50.125 100.750 L 46.125 116.562 L 45.000 128.312 L 46.000 145.250 L 49.000 158.375 L 56.188 175.375 L 66.000 189.812 L 79.125 202.875 L 93.812 212.750 L 110.812 219.812 L 125.812 222.938 L 148.188 223.000 L 163.250 219.938 L 180.375 212.938 L 195.375 202.938 L 209.000 189.250 L 218.812 174.438 L 224.938 160.062 L 228.875 142.375 L 228.938 120.688 L 225.938 105.688 L 219.688 89.812 L 209.938 74.438 L 196.062 60.188 L 178.562 48.688 L 177.875 40.375 L 176.188 38.938 L 172.562 39.000 L 170.688 42.625 L 170.688 133.375 L 146.188 133.812 L 143.000 136.812 L 142.375 161.375 L 104.438 161.312 L 103.875 16.500 L 170.188 16.062 L 171.000 24.312 L 175.250 26.188 L 178.250 23.375 L 178.312 11.875 L 176.750 9.062 L 174.500 8.312 Z M 164.312 141.312 L 164.562 141.562 L 164.562 141.688 L 164.375 142.125 L 164.000 142.688 L 152.312 154.312 L 151.688 155.062 L 151.438 155.188 L 151.062 155.125 L 150.812 154.750 L 150.812 154.438 L 150.750 154.375 L 150.812 153.250 L 150.875 153.188 L 150.812 153.000 L 150.812 142.500 L 151.000 141.812 L 151.375 141.438 L 151.562 141.375 L 152.188 141.375 L 152.250 141.438 L 163.625 141.438 L 164.000 141.312 Z M 94.875 58.000 L 96.125 58.625 L 96.000 75.625 L 86.062 85.062 L 78.062 95.750 L 73.062 105.750 L 69.062 119.938 L 68.125 133.438 L 70.000 147.375 L 74.000 159.312 L 79.375 167.688 L 83.375 166.875 L 84.812 163.625 L 77.125 143.875 L 76.000 135.062 L 77.125 118.938 L 84.125 100.625 L 95.500 86.438 L 96.062 165.688 L 98.500 168.875 L 148.375 168.875 L 177.000 140.562 L 178.375 137.250 L 178.438 86.375 L 190.750 101.250 L 197.812 121.000 L 197.875 141.312 L 192.812 157.562 L 181.750 173.625 L 166.125 185.562 L 149.188 191.625 L 132.875 192.625 L 112.875 187.750 L 95.938 177.000 L 91.188 179.062 L 91.188 182.625 L 97.438 187.875 L 118.500 197.938 L 128.875 200.000 L 146.312 199.938 L 166.938 193.812 L 186.500 179.812 L 194.812 169.625 L 200.938 158.375 L 206.000 138.938 L 204.875 116.875 L 195.812 94.688 L 178.312 75.438 L 178.500 58.000 L 195.625 70.125 L 210.750 89.438 L 217.625 104.938 L 220.875 118.750 L 221.688 135.625 L 218.750 153.812 L 213.812 167.188 L 204.688 182.250 L 194.188 193.750 L 179.312 204.688 L 166.250 210.812 L 151.125 214.812 L 132.500 215.812 L 114.562 212.812 L 96.875 205.625 L 83.500 196.562 L 72.188 185.250 L 63.250 172.188 L 56.188 155.375 L 53.125 139.875 L 53.125 122.625 L 56.188 107.125 L 62.250 92.188 L 71.062 78.625 L 83.125 66.312 Z" fill="#292725" fill-rule="evenodd"/>
  </g>
</svg>
