<?xml version="1.0" encoding="UTF-8"?>
<svg xmlns="http://www.w3.org/2000/svg"
     width="32" height="32"
     viewBox="0 0 32 32">
  <g transform="translate(1.000000 2.213235) scale(0.110294118)">
    <path d="M 13.125 134.938 L 8.125 155.938 L 8.125 171.062 L 11.125 186.250 L 17.000 200.438 L 26.000 213.750 L 38.438 225.812 L 55.125 235.812 L 70.812 240.875 L 87.312 242.375 L 107.000 239.875 L 124.500 232.875 L 135.688 225.438 L 153.688 235.938 L 169.750 240.938 L 184.625 242.375 L 193.750 242.000 L 208.812 238.875 L 218.750 234.875 L 229.312 228.938 L 244.938 214.875 L 255.000 200.312 L 259.812 189.188 L 262.750 178.250 L 264.062 164.312 L 262.812 148.750 L 258.812 134.938 L 254.938 126.562 L 243.938 110.875 L 229.188 98.000 L 214.312 90.062 L 194.750 84.875 L 208.938 70.000 L 197.500 57.062 L 172.250 57.188 L 161.500 70.000 L 175.625 84.875 L 155.812 90.125 L 145.562 95.125 L 136.125 101.562 L 126.375 95.125 L 116.125 90.125 L 96.312 84.875 L 110.438 70.000 L 99.688 57.188 L 74.000 57.188 L 63.000 69.938 L 77.188 84.875 L 57.625 90.062 L 38.625 100.938 L 24.125 115.500 L 18.125 124.562 Z M 135.750 141.500 L 136.312 141.562 L 136.688 142.000 L 137.000 143.312 L 137.750 144.688 L 138.062 146.125 L 138.750 147.688 L 139.000 149.312 L 139.812 151.500 L 140.062 154.125 L 140.812 157.500 L 141.000 162.688 L 140.812 169.438 L 140.062 172.812 L 139.812 175.438 L 139.000 177.688 L 138.750 179.250 L 138.062 180.875 L 137.812 182.125 L 137.000 183.625 L 136.875 184.375 L 136.562 185.188 L 136.000 185.500 L 135.688 185.438 L 135.375 185.188 L 135.062 184.375 L 134.938 183.625 L 134.188 182.250 L 133.875 180.875 L 133.188 179.250 L 132.938 177.625 L 132.125 175.438 L 131.875 172.812 L 131.125 169.438 L 130.938 164.250 L 131.125 157.500 L 131.875 154.125 L 132.125 151.500 L 132.938 149.312 L 133.188 147.750 L 133.875 146.125 L 134.188 144.688 L 134.938 143.312 L 135.250 142.000 Z M 184.562 109.125 L 195.938 110.188 L 205.938 113.250 L 215.250 118.250 L 223.438 125.000 L 229.812 132.562 L 232.875 137.500 L 235.750 143.688 L 238.625 153.938 L 239.438 163.188 L 238.625 173.062 L 235.750 183.250 L 233.625 188.000 L 230.625 193.188 L 223.938 201.438 L 219.250 205.750 L 215.375 208.625 L 206.000 213.688 L 196.312 216.688 L 186.062 217.812 L 181.188 217.688 L 174.750 216.812 L 166.812 214.625 L 158.500 210.812 L 153.438 207.562 L 152.938 206.625 L 158.812 195.938 L 162.750 185.250 L 164.938 175.188 L 165.750 164.875 L 164.938 151.750 L 162.812 141.938 L 158.750 130.875 L 155.750 125.000 L 153.125 121.000 L 153.000 120.062 L 153.625 119.250 L 158.562 116.125 L 167.000 112.250 L 174.875 110.125 Z M 86.188 109.125 L 97.062 110.125 L 104.938 112.250 L 113.375 116.125 L 118.312 119.250 L 119.000 120.312 L 113.188 130.875 L 110.062 138.875 L 107.125 151.062 L 106.188 162.062 L 107.000 175.188 L 109.188 185.250 L 113.125 195.938 L 117.000 203.375 L 118.875 206.062 L 118.938 206.938 L 115.375 209.688 L 111.875 211.688 L 105.125 214.625 L 97.188 216.812 L 87.938 217.812 L 81.625 217.562 L 75.938 216.750 L 65.938 213.688 L 56.562 208.625 L 48.625 202.062 L 42.250 194.562 L 37.125 185.500 L 35.125 180.375 L 33.375 173.375 L 32.500 163.750 L 33.312 153.938 L 36.188 143.688 L 39.062 137.500 L 42.125 132.562 L 48.062 125.438 L 52.625 121.250 L 56.688 118.250 L 66.000 113.250 L 75.688 110.250 Z M 183.812 92.375 L 201.000 94.125 L 213.312 98.125 L 224.438 104.188 L 235.500 113.250 L 244.688 124.562 L 250.688 135.688 L 254.812 148.812 L 256.188 163.250 L 254.812 178.188 L 250.750 191.125 L 244.688 202.375 L 235.812 213.375 L 224.562 222.688 L 213.312 228.812 L 201.062 232.812 L 185.562 234.625 L 172.938 233.562 L 159.250 229.750 L 148.750 224.625 L 138.188 216.812 L 128.375 206.250 L 121.062 194.375 L 116.188 181.125 L 114.062 165.438 L 115.125 150.812 L 117.125 142.500 L 121.125 132.438 L 125.562 125.438 L 131.125 132.688 L 126.125 143.812 L 123.250 157.750 L 123.062 167.375 L 125.000 179.312 L 128.062 188.125 L 133.000 197.312 L 140.062 206.188 L 147.375 212.938 L 156.688 218.750 L 166.750 222.875 L 175.562 224.938 L 185.812 225.625 L 199.250 224.000 L 209.312 220.812 L 220.125 214.812 L 229.125 207.312 L 236.750 198.062 L 241.875 188.875 L 244.750 181.250 L 247.000 169.875 L 246.938 156.438 L 244.750 145.688 L 239.812 133.875 L 232.938 123.812 L 225.250 116.062 L 215.312 109.125 L 203.562 104.062 L 195.062 102.125 L 184.062 101.375 L 170.625 103.000 L 159.125 107.062 L 148.438 113.438 L 142.312 107.500 L 150.562 101.312 L 161.750 96.250 L 173.625 93.250 Z M 85.688 92.375 L 99.125 93.438 L 112.438 97.125 L 123.125 102.312 L 134.312 110.688 L 144.438 121.875 L 150.750 132.312 L 155.812 146.125 L 157.875 161.500 L 156.812 176.188 L 154.812 184.438 L 151.625 192.875 L 146.312 201.500 L 140.812 194.250 L 145.812 183.188 L 148.812 168.250 L 148.812 158.875 L 146.938 147.625 L 143.875 138.812 L 138.938 129.688 L 131.000 119.875 L 124.625 114.062 L 115.250 108.188 L 105.125 104.062 L 96.250 102.000 L 85.812 101.375 L 72.438 103.000 L 62.875 106.062 L 51.750 112.188 L 43.062 119.375 L 36.125 127.562 L 31.125 135.875 L 27.188 145.688 L 24.938 157.000 L 24.938 170.000 L 27.188 181.250 L 32.188 193.188 L 39.000 203.125 L 46.812 211.000 L 56.688 217.875 L 68.500 222.938 L 76.750 224.812 L 87.562 225.625 L 101.375 223.938 L 113.062 219.812 L 123.438 213.562 L 129.625 219.500 L 121.312 225.688 L 110.062 230.750 L 98.062 233.750 L 87.312 234.625 L 70.875 232.812 L 58.625 228.812 L 47.375 222.688 L 36.625 213.875 L 27.250 202.375 L 21.188 191.125 L 17.125 178.188 L 15.812 164.875 L 17.125 148.812 L 21.250 135.688 L 27.250 124.562 L 36.250 113.438 L 47.312 104.312 L 58.625 98.125 L 70.938 94.125 Z M 172.000 69.250 L 172.125 69.000 L 173.000 68.125 L 173.250 67.688 L 173.938 67.000 L 174.188 66.562 L 174.938 65.812 L 175.125 65.500 L 175.688 65.062 L 176.125 65.000 L 194.438 65.000 L 194.688 65.125 L 195.625 66.062 L 197.125 67.875 L 197.875 68.625 L 198.312 69.312 L 198.312 69.625 L 197.750 70.438 L 186.062 82.062 L 185.625 82.625 L 185.125 82.688 L 184.688 82.438 L 172.250 70.062 L 172.000 69.688 Z M 73.625 69.312 L 74.062 68.625 L 74.812 67.875 L 75.000 67.562 L 76.375 66.000 L 77.250 65.125 L 77.500 65.000 L 95.812 65.000 L 96.500 65.188 L 97.750 66.562 L 98.000 67.000 L 98.688 67.688 L 98.938 68.125 L 99.812 69.000 L 99.938 69.250 L 99.938 69.688 L 99.750 70.000 L 87.250 82.438 L 86.812 82.688 L 86.438 82.688 L 74.188 70.438 L 73.688 69.750 Z M 169.812 14.812 L 168.812 14.875 L 168.125 15.562 L 167.688 16.938 L 167.062 17.812 L 166.750 18.938 L 166.125 19.875 L 165.750 21.125 L 165.125 22.062 L 164.875 22.688 L 164.812 23.125 L 163.938 24.625 L 163.812 25.312 L 163.000 26.625 L 162.875 27.312 L 162.500 28.062 L 162.062 28.625 L 161.875 29.438 L 161.500 30.250 L 161.188 30.562 L 161.062 30.812 L 160.688 32.062 L 160.062 33.000 L 159.688 34.250 L 159.125 34.875 L 159.000 35.125 L 159.062 35.938 L 159.750 36.625 L 160.562 37.000 L 161.188 37.125 L 162.688 38.000 L 163.188 38.062 L 164.062 38.500 L 164.625 38.938 L 165.250 39.125 L 165.688 39.062 L 166.000 38.812 L 166.500 37.812 L 166.938 37.188 L 167.188 36.250 L 167.438 35.750 L 167.875 35.188 L 167.938 34.812 L 168.312 33.812 L 168.812 33.188 L 169.188 31.938 L 169.812 31.000 L 170.188 29.750 L 170.625 29.125 L 171.000 28.375 L 171.188 27.562 L 171.938 26.375 L 172.125 25.562 L 172.938 24.250 L 173.062 23.562 L 173.250 23.125 L 173.875 22.250 L 174.250 20.938 L 174.750 20.312 L 175.000 19.500 L 175.500 18.500 L 175.438 17.688 L 175.250 17.375 L 175.000 17.188 L 173.625 16.750 L 172.438 16.000 L 171.625 15.812 L 170.812 15.375 L 170.312 15.000 Z M 102.125 14.812 L 101.625 15.000 L 101.125 15.375 L 100.312 15.812 L 99.500 16.000 L 98.312 16.750 L 96.938 17.188 L 96.688 17.375 L 96.500 17.688 L 96.438 18.500 L 96.938 19.500 L 97.188 20.312 L 97.688 20.938 L 98.000 21.812 L 98.000 22.062 L 98.688 23.125 L 98.875 23.562 L 99.000 24.250 L 99.375 24.750 L 99.812 25.562 L 100.000 26.375 L 100.750 27.562 L 100.938 28.375 L 101.312 29.125 L 101.750 29.750 L 102.188 31.125 L 102.688 31.750 L 103.062 33.000 L 103.688 33.938 L 104.062 35.188 L 104.500 35.750 L 104.750 36.250 L 105.000 37.188 L 105.438 37.812 L 105.938 38.812 L 106.250 39.062 L 106.688 39.125 L 107.312 38.938 L 107.875 38.500 L 108.750 38.062 L 109.250 38.000 L 110.750 37.125 L 111.375 37.000 L 112.188 36.625 L 112.875 35.938 L 112.938 35.125 L 112.812 34.875 L 112.375 34.438 L 112.188 34.062 L 111.875 33.000 L 111.250 32.062 L 110.875 30.812 L 110.750 30.562 L 110.438 30.250 L 110.062 29.438 L 109.875 28.625 L 109.438 28.062 L 109.062 27.312 L 108.938 26.625 L 108.125 25.312 L 108.000 24.625 L 107.125 23.125 L 107.062 22.688 L 106.688 21.812 L 106.188 21.125 L 105.812 19.875 L 105.188 18.938 L 104.875 17.812 L 104.250 16.938 L 103.812 15.562 L 103.125 14.875 Z M 132.562 7.625 L 132.188 7.938 L 131.938 8.688 L 132.000 9.000 L 132.000 29.938 L 131.938 30.000 L 132.000 30.562 L 132.188 31.000 L 132.500 31.312 L 132.688 31.375 L 133.625 31.375 L 133.688 31.438 L 134.000 31.375 L 137.938 31.375 L 138.000 31.438 L 139.250 31.375 L 139.438 31.312 L 139.750 31.000 L 140.000 30.250 L 139.938 29.938 L 139.938 9.000 L 140.000 8.938 L 139.938 8.375 L 139.750 7.938 L 139.500 7.688 L 139.125 7.562 L 132.812 7.562 Z" fill="#000000" fill-rule="evenodd"/>
  </g>
</svg>
