<?xml version="1.0" encoding="UTF-8"?>
<svg xmlns="http://www.w3.org/2000/svg"
     width="32" height="32"
     viewBox="0 0 32 32">
  <g transform="translate(1.000000 2.213235) scale(0.110294118)">
    <path d="M 213.812 142.312 L 211.312 143.062 L 209.062 145.750 L 208.750 151.375 L 207.812 156.875 L 205.750 163.125 L 201.688 170.375 L 197.750 175.062 L 191.125 180.688 L 183.375 184.750 L 176.062 186.812 L 168.750 187.312 L 166.312 188.062 L 164.062 190.750 L 163.875 193.000 L 164.062 194.188 L 165.000 195.688 L 166.688 197.062 L 168.750 197.625 L 176.062 198.125 L 183.312 200.125 L 189.375 203.125 L 196.125 208.250 L 201.750 214.625 L 205.750 221.812 L 207.812 228.062 L 208.750 233.500 L 209.188 239.438 L 211.312 241.875 L 214.000 242.625 L 216.625 241.875 L 218.875 239.188 L 219.188 233.500 L 220.125 228.000 L 222.188 221.812 L 226.250 214.562 L 230.188 209.875 L 236.625 204.375 L 244.562 200.188 L 251.875 198.125 L 259.188 197.625 L 261.625 196.875 L 263.875 194.188 L 264.062 191.938 L 263.875 190.750 L 263.062 189.438 L 261.250 187.875 L 259.188 187.312 L 251.875 186.812 L 244.562 184.750 L 238.562 181.812 L 231.688 176.562 L 226.250 170.375 L 222.188 163.125 L 220.125 156.938 L 219.188 151.438 L 218.750 145.500 L 216.625 143.062 Z M 213.875 170.250 L 214.312 170.312 L 214.625 170.562 L 216.000 173.375 L 218.125 176.562 L 221.000 180.188 L 223.812 183.188 L 226.875 185.938 L 230.500 188.750 L 231.312 189.125 L 233.625 190.750 L 236.625 192.312 L 236.625 192.625 L 236.375 192.875 L 235.688 193.062 L 234.438 193.875 L 233.812 194.062 L 233.062 194.688 L 230.562 196.125 L 226.750 199.062 L 224.062 201.500 L 221.000 204.750 L 218.125 208.375 L 216.000 211.562 L 214.625 214.375 L 214.062 214.688 L 213.562 214.562 L 213.250 214.250 L 211.938 211.562 L 210.188 209.125 L 209.875 208.438 L 206.938 204.750 L 203.875 201.500 L 201.250 199.125 L 197.375 196.125 L 196.562 195.750 L 194.250 194.125 L 191.375 192.625 L 191.375 192.312 L 191.625 192.062 L 194.250 190.812 L 198.375 188.062 L 202.188 185.000 L 203.938 183.375 L 206.938 180.188 L 209.812 176.562 L 211.938 173.375 L 213.312 170.562 Z M 145.750 139.062 L 145.062 139.562 L 144.250 140.000 L 143.062 141.312 L 142.875 141.688 L 142.812 142.125 L 142.500 142.875 L 142.312 143.812 L 142.500 145.062 L 142.812 145.812 L 142.875 146.250 L 143.062 146.625 L 144.188 147.875 L 144.875 148.250 L 145.750 148.875 L 146.375 149.000 L 146.875 149.000 L 146.938 149.062 L 148.000 149.062 L 148.062 149.000 L 148.562 149.000 L 149.188 148.875 L 149.750 148.438 L 150.750 147.875 L 151.875 146.625 L 152.062 146.250 L 152.125 145.812 L 152.375 145.250 L 152.625 144.062 L 152.562 143.438 L 152.375 142.688 L 152.125 142.125 L 152.062 141.688 L 151.875 141.312 L 150.688 140.000 L 150.062 139.688 L 149.188 139.062 L 148.562 138.938 L 148.062 138.938 L 148.000 138.875 L 146.938 138.875 L 146.875 138.938 L 146.375 138.938 Z M 120.812 22.312 L 118.312 23.062 L 116.062 25.750 L 113.812 46.312 L 108.688 61.750 L 101.688 74.500 L 91.750 86.688 L 81.375 95.812 L 68.250 103.812 L 48.188 110.688 L 28.688 112.875 L 26.188 115.500 L 25.875 118.000 L 27.000 120.688 L 29.688 122.375 L 47.875 124.188 L 64.188 129.250 L 77.250 136.250 L 90.438 146.938 L 99.625 157.500 L 107.750 171.125 L 113.812 188.625 L 116.062 209.188 L 118.312 211.875 L 121.000 212.625 L 123.625 211.875 L 125.875 209.188 L 128.250 188.000 L 132.188 175.562 L 138.000 164.188 L 137.875 158.938 L 134.125 156.562 L 130.250 157.750 L 120.625 175.500 L 110.875 155.812 L 97.000 139.062 L 80.250 126.062 L 62.312 117.312 L 80.250 108.875 L 97.812 95.062 L 110.812 79.188 L 120.812 59.375 L 131.062 79.125 L 144.062 95.000 L 161.688 108.875 L 179.688 117.312 L 166.812 123.125 L 161.000 127.000 L 160.062 131.312 L 163.125 134.750 L 166.875 134.875 L 177.875 129.188 L 189.688 125.188 L 213.250 122.062 L 215.750 119.438 L 216.062 116.938 L 214.875 114.188 L 212.250 112.562 L 194.062 110.750 L 177.938 105.750 L 163.312 97.750 L 151.375 87.875 L 142.312 77.438 L 134.188 63.812 L 128.125 46.312 L 125.875 25.750 L 123.625 23.062 Z M 42.812 7.312 L 40.312 8.062 L 39.000 9.250 L 38.188 10.500 L 37.750 15.438 L 36.688 20.250 L 35.812 22.500 L 33.688 26.375 L 31.188 29.375 L 27.375 32.812 L 24.250 34.750 L 22.125 35.688 L 18.562 36.812 L 12.688 37.312 L 10.312 38.062 L 9.000 39.250 L 8.062 40.750 L 7.875 43.000 L 8.188 44.438 L 9.000 45.688 L 10.312 46.875 L 12.750 47.625 L 18.250 48.062 L 22.000 49.188 L 26.062 51.250 L 29.875 54.250 L 33.688 58.562 L 35.812 62.438 L 36.750 64.812 L 37.625 68.750 L 38.188 74.438 L 39.000 75.688 L 40.312 76.875 L 43.000 77.625 L 45.625 76.875 L 46.875 75.750 L 47.750 74.438 L 48.188 69.438 L 49.188 64.812 L 50.125 62.438 L 52.250 58.562 L 55.000 55.312 L 58.562 52.125 L 63.750 49.250 L 67.750 48.062 L 73.188 47.625 L 75.625 46.875 L 76.875 45.750 L 77.875 44.188 L 78.062 41.938 L 77.750 40.500 L 76.875 39.188 L 75.625 38.062 L 73.250 37.312 L 67.812 36.875 L 63.938 35.750 L 59.812 33.625 L 56.062 30.688 L 52.250 26.375 L 50.062 22.375 L 49.125 19.875 L 48.312 16.250 L 47.750 10.500 L 46.875 9.188 L 45.625 8.062 Z M 42.812 31.250 L 43.312 31.312 L 43.750 31.688 L 44.000 32.375 L 44.562 33.000 L 45.188 33.938 L 45.812 34.562 L 46.062 35.000 L 46.750 35.688 L 46.938 36.000 L 48.875 38.000 L 52.312 40.875 L 53.188 41.375 L 53.688 41.812 L 54.125 42.000 L 54.500 42.375 L 54.500 42.562 L 54.125 42.938 L 53.562 43.188 L 53.000 43.688 L 52.375 44.000 L 48.938 46.875 L 46.062 49.938 L 45.812 50.375 L 45.188 51.000 L 44.562 51.938 L 44.125 52.375 L 43.875 52.812 L 43.750 53.250 L 43.438 53.562 L 43.125 53.688 L 42.625 53.625 L 42.188 53.250 L 41.938 52.562 L 41.375 51.938 L 40.688 50.938 L 40.125 50.375 L 39.875 49.938 L 39.188 49.250 L 39.062 49.000 L 37.062 46.938 L 36.688 46.688 L 35.062 45.188 L 34.312 44.688 L 33.625 44.062 L 32.875 43.625 L 32.312 43.125 L 31.750 42.875 L 31.500 42.625 L 31.500 42.312 L 31.750 42.062 L 32.312 41.812 L 32.625 41.500 L 33.625 40.875 L 34.312 40.250 L 34.812 39.938 L 35.500 39.250 L 36.000 38.938 L 36.688 38.250 L 37.062 38.000 L 38.188 36.875 L 39.875 35.000 L 40.125 34.562 L 40.688 34.000 L 41.312 33.062 L 41.812 32.562 L 42.062 32.125 L 42.188 31.688 L 42.500 31.375 Z"
          fill="#000000"
          fill-rule="evenodd"/>
  </g>
</svg>
