<?xml version="1.0" encoding="UTF-8"?>
<svg xmlns="http://www.w3.org/2000/svg"
     width="24" height="24"
     viewBox="0 0 24 24">
  <g transform="translate(3.909091 1.000000) scale(0.090909091)">
    <path d="M 84.500 56.000 L 79.562 57.062 L 76.688 58.062 L 72.625 60.062 L 69.562 62.062 L 67.250 64.000 L 62.000 69.625 L 59.000 74.625 L 57.000 79.750 L 55.938 85.188 L 55.812 89.062 L 56.062 93.938 L 57.000 98.188 L 57.750 99.812 L 58.062 101.250 L 60.062 105.312 L 62.000 108.312 L 66.062 112.875 L 69.562 115.875 L 74.625 118.938 L 79.750 120.938 L 85.250 122.000 L 93.438 121.938 L 98.375 120.875 L 99.625 120.250 L 101.250 119.875 L 105.312 117.875 L 108.312 115.938 L 110.938 113.750 L 115.875 108.375 L 118.938 103.312 L 120.938 98.188 L 122.000 92.688 L 121.938 84.500 L 120.875 79.562 L 120.188 78.125 L 119.875 76.688 L 117.875 72.625 L 115.875 69.562 L 113.750 67.000 L 108.312 62.000 L 103.312 59.000 L 98.188 57.000 L 92.750 55.938 Z M 85.625 69.062 L 89.000 68.875 L 93.000 69.188 L 94.688 69.875 L 96.125 70.188 L 97.500 71.000 L 98.312 71.250 L 98.875 71.750 L 99.938 72.312 L 102.250 74.125 L 103.812 75.688 L 105.625 78.000 L 106.188 79.062 L 106.688 79.625 L 106.938 80.438 L 107.750 81.812 L 108.062 83.250 L 108.688 84.688 L 108.875 85.625 L 109.000 90.625 L 108.750 93.000 L 108.062 94.688 L 107.750 96.125 L 106.938 97.500 L 106.688 98.312 L 105.562 100.000 L 103.750 102.312 L 102.312 103.750 L 100.000 105.562 L 98.312 106.688 L 97.500 106.938 L 96.125 107.750 L 94.688 108.062 L 93.375 108.625 L 92.312 108.875 L 87.312 109.000 L 84.938 108.750 L 83.250 108.062 L 81.812 107.750 L 80.438 106.938 L 79.625 106.688 L 77.938 105.562 L 75.625 103.750 L 73.312 101.312 L 72.312 99.938 L 71.750 98.875 L 71.250 98.312 L 71.000 97.500 L 70.188 96.125 L 69.875 94.688 L 69.250 93.250 L 69.062 92.312 L 68.875 88.938 L 69.188 84.938 L 69.875 83.250 L 70.188 81.812 L 71.000 80.438 L 71.250 79.625 L 71.750 79.062 L 72.312 78.000 L 74.188 75.625 L 76.625 73.312 L 78.000 72.312 L 79.062 71.750 L 79.625 71.250 L 80.438 71.000 L 81.812 70.188 L 83.250 69.875 L 84.688 69.250 Z M 84.750 7.875 L 69.500 10.000 L 54.688 15.062 L 40.812 23.125 L 29.125 33.250 L 20.062 44.562 L 13.125 57.688 L 9.000 71.625 L 7.875 86.938 L 10.125 103.000 L 16.000 120.438 L 73.125 224.250 L 75.875 228.250 L 80.312 231.938 L 85.000 233.812 L 90.875 234.062 L 97.812 231.812 L 103.875 225.812 L 160.875 122.500 L 164.812 113.250 L 167.812 103.000 L 169.812 91.250 L 170.062 81.625 L 167.812 66.750 L 163.000 53.688 L 154.875 40.375 L 143.250 27.938 L 129.188 18.062 L 115.438 12.000 L 97.500 8.125 Z M 89.438 20.875 L 103.438 22.062 L 114.188 25.125 L 126.438 31.125 L 137.250 39.375 L 145.625 48.562 L 152.812 60.625 L 156.688 71.812 L 158.125 83.688 L 156.750 98.125 L 154.750 105.438 L 151.750 112.750 L 92.750 220.312 L 90.438 221.062 L 87.500 220.750 L 85.312 218.188 L 28.250 115.688 L 23.250 102.125 L 21.688 89.250 L 22.312 77.562 L 24.188 68.750 L 26.188 63.062 L 32.188 51.750 L 40.125 42.062 L 50.562 33.125 L 62.938 26.312 L 75.938 22.188 Z"
          fill="#6f6963"
          fill-rule="evenodd"/>
  </g>
</svg>
